<?xml version="1.0" encoding="UTF-8" standalone="no"?><!DOCTYPE svg PUBLIC "-//W3C//DTD SVG 1.1//EN" "http://www.w3.org/Graphics/SVG/1.1/DTD/svg11.dtd"><svg width="100%" height="100%" viewBox="0 0 188 37" version="1.1" xmlns="http://www.w3.org/2000/svg" xmlns:xlink="http://www.w3.org/1999/xlink" xml:space="preserve" style="fill-rule:evenodd;clip-rule:evenodd;stroke-linejoin:round;stroke-miterlimit:1.41421;"><rect id="Artboard1" x="0" y="0" width="187.982" height="36.105" style="fill:none;"/><path d="M59.542,20.277c0,0.451 0.036,0.901 0.14,1.318c0.693,2.564 2.911,4.228 5.477,4.228c3.812,0 5.996,-3.086 5.996,-7.523c0,-3.743 -2.08,-7.105 -5.858,-7.105c-2.426,0 -4.784,1.664 -5.511,4.402c-0.104,0.451 -0.244,0.971 -0.244,1.421l0,3.259Zm-1.663,-4.784c0,-2.08 -0.035,-3.71 -0.139,-5.303l1.594,0l0.104,3.154l0.07,0c1.215,-2.184 3.259,-3.536 6.17,-3.536c4.264,0 7.141,3.536 7.141,8.424c0,5.927 -3.535,8.979 -7.557,8.979c-2.391,0 -4.506,-1.075 -5.65,-3.085l-0.07,0l0,9.566l-1.663,0l0,-18.199Z" style="fill:#0198cd;fill-rule:nonzero;"/><path d="M77.05,10.19l1.664,0l0,16.639l-1.664,0l0,-16.639Zm0.763,-3.328c-0.763,0 -1.283,-0.658 -1.283,-1.422c0,-0.761 0.589,-1.456 1.352,-1.456c0.762,0 1.318,0.659 1.318,1.456c0,0.764 -0.521,1.422 -1.353,1.422l-0.034,0Z" style="fill:#0198cd;fill-rule:nonzero;"/><path d="M84.295,14.176c0,-1.525 -0.035,-2.669 -0.139,-3.986l1.56,0l0.103,2.982l0.07,0c0.902,-1.873 3.017,-3.364 5.72,-3.364c1.595,0 5.824,0.797 5.824,7.037l0,9.984l-1.664,0l0,-9.844c0,-3.052 -1.179,-5.789 -4.611,-5.789c-2.322,0 -4.332,1.663 -4.991,3.846c-0.104,0.382 -0.208,0.937 -0.208,1.457l0,10.33l-1.664,0l0,-12.653Z" style="fill:#0198cd;fill-rule:nonzero;"/><path d="M113.727,17.019c0.035,-2.322 -0.937,-5.823 -4.958,-5.823c-3.674,0 -5.233,3.259 -5.545,5.823l10.503,0Zm-10.607,1.318c0,5.303 2.912,7.418 6.343,7.418c2.426,0 3.674,-0.486 4.611,-0.937l0.416,1.284c-0.624,0.346 -2.324,1.073 -5.235,1.073c-4.784,0 -7.764,-3.466 -7.764,-8.353c0,-5.546 3.188,-9.013 7.487,-9.013c5.442,0 6.482,5.13 6.482,7.522c0,0.451 0,0.693 -0.069,1.006l-12.271,0Z" style="fill:#0198cd;fill-rule:nonzero;"/><path d="M131.303,16.603c0,-0.624 -0.035,-1.144 -0.209,-1.629c-0.692,-1.975 -2.426,-3.778 -5.165,-3.778c-3.535,0 -5.962,2.876 -5.962,7.278c0,3.744 1.976,6.968 5.894,6.968c2.218,0 4.296,-1.386 5.165,-3.743c0.172,-0.554 0.277,-1.179 0.277,-1.769l0,-3.327Zm1.664,7.8c0,4.263 -0.901,6.377 -2.289,7.696c-1.525,1.455 -3.777,1.975 -5.65,1.975c-1.907,0 -4.021,-0.486 -5.304,-1.456l0.59,-1.317c1.178,0.761 2.807,1.386 4.957,1.386c3.501,0 6.032,-1.803 6.032,-6.725l0,-2.357l-0.07,0c-0.867,1.7 -2.808,3.224 -5.789,3.224c-4.194,0 -7.14,-3.641 -7.14,-8.181c0,-5.789 3.812,-8.839 7.487,-8.839c3.293,0 4.922,1.802 5.616,3.19l0.069,0l0.104,-2.809l1.526,0c-0.105,1.248 -0.139,2.565 -0.139,4.298l0,9.915Z" style="fill:#0198cd;fill-rule:nonzero;"/><path d="M138.235,15.182c0,-1.664 -0.034,-3.362 -0.138,-4.992l1.526,0l0.069,3.363l0.104,0c0.728,-2.115 2.461,-3.745 4.714,-3.745c0.243,0 0.485,0.035 0.694,0.069l0,1.561c-0.243,-0.035 -0.486,-0.035 -0.798,-0.035c-2.287,0 -3.917,1.976 -4.367,4.645c-0.105,0.486 -0.139,1.04 -0.139,1.594l0,9.187l-1.665,0l0,-11.647Z" style="fill:#0198cd;fill-rule:nonzero;"/><path d="M154.46,25.823c3.467,0 6.205,-3.119 6.205,-7.384c0,-3.05 -1.698,-7.243 -6.101,-7.243c-4.263,0 -6.17,3.777 -6.17,7.348c0,4.16 2.635,7.279 6.031,7.279l0.035,0Zm-0.104,1.388c-4.298,0 -7.625,-3.364 -7.625,-8.563c0,-5.685 3.743,-8.84 7.868,-8.84c4.61,0 7.73,3.467 7.73,8.562c0,6.17 -4.264,8.841 -7.938,8.841l-0.035,0Z" style="fill:#0198cd;fill-rule:nonzero;"/><path d="M166.074,10.19l2.808,9.462c0.555,1.943 1.04,3.606 1.421,5.202l0.07,0c0.416,-1.526 1.006,-3.295 1.664,-5.202l3.328,-9.462l1.56,0l3.188,9.358c0.694,2.047 1.213,3.744 1.629,5.306l0.07,0c0.347,-1.562 0.866,-3.225 1.526,-5.235l2.946,-9.429l1.698,0l-5.546,16.639l-1.422,0l-3.153,-9.29c-0.694,-2.011 -1.283,-3.779 -1.734,-5.651l-0.069,0c-0.486,1.942 -1.11,3.778 -1.802,5.72l-3.294,9.221l-1.456,0l-5.13,-16.639l1.698,0Z" style="fill:#0198cd;fill-rule:nonzero;"/><g><g opacity="0.899994"><clipPath id="_clip1"><rect x="0" y="-0.003" width="35.022" height="36.11"/></clipPath><g clip-path="url(#_clip1)"><path d="M32.959,23.102l-2.029,2.444c-0.318,0.389 -1.073,0.543 -1.521,0.313l-6.088,-3.13c-0.015,-0.01 -0.028,-0.017 -0.041,-0.023c0.013,-0.01 0.026,-0.016 0.041,-0.022l5.168,-2.774c0.538,-0.287 1.623,-0.287 2.163,-0.003l0.564,0.3c0.707,0.375 1.641,1.124 2.002,1.605c0.153,0.205 0.129,0.822 -0.259,1.29m-8.532,10.292c-0.315,0.384 -1.043,0.521 -1.479,0.284l-0.264,-0.145l-0.992,-0.551c-0.074,-0.037 -0.121,-0.076 -0.15,-0.101c0.029,-0.031 0.075,-0.067 0.142,-0.111l6.691,-4.128l-3.948,4.752Zm-11.74,0.993c-0.669,0 -1.673,-0.474 -2.103,-0.993l-1.825,-2.199c-0.116,-0.146 -0.167,-0.3 -0.139,-0.439c0.026,-0.139 0.131,-0.264 0.295,-0.349l1.214,-0.653c0.264,-0.139 0.647,-0.223 1.058,-0.223c0.414,0 0.822,0.09 1.088,0.236l8.388,4.62l-7.976,0Zm-8.903,-9.197l5.53,2.968c0.028,0.016 0.051,0.029 0.07,0.039c-0.019,0.013 -0.042,0.027 -0.07,0.039l-1.212,0.651c-0.149,0.078 -0.331,0.121 -0.529,0.121c-0.379,0 -0.76,-0.16 -0.969,-0.411l-2.82,-3.407Zm-1.767,-3.674l3.651,-4.868c0.291,-0.39 0.995,-0.555 1.431,-0.327l3.047,1.567c0.018,0.009 0.033,0.016 0.045,0.024c-0.012,0.009 -0.027,0.019 -0.045,0.025l-7.019,3.786c-0.405,0.218 -0.918,0.357 -1.311,0.357c-0.031,0 -0.056,0 -0.082,-0.005c0.031,-0.129 0.111,-0.332 0.283,-0.559m5.674,-7.569l2.788,-3.713c0.195,-0.258 0.558,-0.426 0.927,-0.426c0.177,0 0.345,0.037 0.485,0.112l2.513,1.339l0.001,0l4.04,2.151c0.005,0 0.008,0.003 0.012,0.006c0.022,0.009 0.041,0.024 0.055,0.033c-0.016,0.01 -0.037,0.024 -0.061,0.035l-5.325,2.854c-0.276,0.145 -0.694,0.233 -1.12,0.233c-0.417,0 -0.806,-0.078 -1.072,-0.213l-3.047,-1.57c-0.171,-0.085 -0.283,-0.218 -0.319,-0.37c-0.034,-0.151 0.01,-0.316 0.123,-0.471m4.834,-6.371c1.877,-2.371 4.196,-5.078 5.032,-5.765c0.504,0.355 1.576,1.45 2.496,2.573c0.119,0.144 0.168,0.3 0.138,0.441c-0.026,0.139 -0.133,0.259 -0.295,0.351l-5.88,3.125c-0.533,0.158 -1.239,0.141 -1.551,-0.023c-0.071,-0.04 -0.109,-0.087 -0.124,-0.162c-0.026,-0.115 0.011,-0.32 0.184,-0.54m11.587,2.1c0.116,0.155 0.16,0.326 0.126,0.482c-0.035,0.16 -0.146,0.296 -0.317,0.389l-2.5,1.339c-0.535,0.29 -1.618,0.29 -2.158,0.006l-0.002,-0.003l-4.049,-2.154c-0.024,-0.01 -0.045,-0.022 -0.064,-0.035c0.019,-0.01 0.042,-0.024 0.064,-0.037l5.498,-2.962c0.425,-0.23 1.114,-0.075 1.404,0.311l1.998,2.664Zm5.993,7.987l-1.613,-0.86c-0.005,0 -0.005,0 -0.006,-0.004l-6.245,-3.321c-0.001,-0.002 -0.004,-0.002 -0.009,-0.002c-0.022,-0.014 -0.042,-0.023 -0.057,-0.036c0.015,-0.01 0.037,-0.024 0.062,-0.037l2.497,-1.34c0.426,-0.226 1.117,-0.071 1.407,0.31l3.964,5.29Zm-8.717,3.737c-0.413,0 -0.803,-0.078 -1.07,-0.218l-6.379,-3.28c-0.015,-0.008 -0.029,-0.014 -0.043,-0.024c0.014,-0.004 0.028,-0.014 0.043,-0.023l5.324,-2.853c0.538,-0.286 1.622,-0.29 2.163,-0.006l0.004,0l6.26,3.335c0.02,0.006 0.034,0.015 0.05,0.025c-0.02,0.013 -0.042,0.024 -0.064,0.037l-5.169,2.772c-0.275,0.147 -0.694,0.235 -1.119,0.235m6.265,5.491c0.05,0.03 0.093,0.056 0.122,0.077c-0.028,0.025 -0.065,0.056 -0.118,0.088l-6.876,4.248c-0.498,0.309 -1.535,0.333 -2.049,0.048l-5.627,-3.096c-0.032,-0.017 -0.06,-0.032 -0.081,-0.049c0.023,-0.014 0.049,-0.029 0.081,-0.049l7.239,-3.879c0.541,-0.29 1.644,-0.297 2.189,-0.019l2.262,1.163l2.858,1.468Zm-23.715,-3.576c-0.024,-0.008 -0.049,-0.022 -0.066,-0.035c0.021,-0.013 0.044,-0.027 0.07,-0.043l7.021,-3.782c0.538,-0.291 1.644,-0.301 2.186,-0.02l6.38,3.281c0.016,0.006 0.029,0.013 0.043,0.023c-0.014,0.003 -0.027,0.012 -0.043,0.023l-7.236,3.878c-0.54,0.292 -1.625,0.292 -2.164,0l-6.191,-3.325Zm30.659,-2.538c-0.291,-0.386 -0.787,-0.848 -1.326,-1.269c0,-0.495 -0.333,-0.94 -0.48,-1.139l-5.273,-7.028c-0.383,-0.507 -0.944,-0.864 -1.576,-1.018c0.072,-0.584 -0.082,-1.187 -0.452,-1.682l-2,-2.665c-0.385,-0.516 -0.953,-0.871 -1.593,-1.027c0.055,-0.579 -0.115,-1.173 -0.514,-1.658c-2.699,-3.291 -3.587,-3.291 -3.876,-3.291c-0.416,0 -1.186,0 -6.332,6.507c-0.4,0.508 -0.584,1.109 -0.544,1.682c-0.612,0.165 -1.157,0.514 -1.531,1.013l-2.785,3.712c-0.37,0.496 -0.521,1.092 -0.451,1.673c-0.633,0.161 -1.192,0.517 -1.575,1.029l-3.651,4.867c-0.52,0.693 -0.737,1.462 -0.596,2.101c0.032,0.143 0.085,0.27 0.148,0.389c-0.034,0.528 0.352,1.004 0.538,1.227l4.551,5.494c0.404,0.485 0.986,0.824 1.63,0.966c-0.045,0.574 0.131,1.157 0.528,1.633l1.823,2.2c0.762,0.921 2.235,1.612 3.427,1.612l9.635,0c0.884,0 1.292,-0.294 1.48,-0.616c0.768,-0.079 1.48,-0.429 1.952,-0.992l4.361,-5.255c0.326,-0.393 0.815,-1.088 0.883,-1.747c0.492,-0.176 0.938,-0.459 1.26,-0.848l2.024,-2.447c0.85,-1.023 0.986,-2.526 0.315,-3.423" style="fill:#0198cd;fill-rule:nonzero;"/></g></g></g></svg>